<?xml version="1.0" encoding="utf-8"?>
<!-- Generator: Adobe Illustrator 20.1.0, SVG Export Plug-In . SVG Version: 6.00 Build 0)  -->
<svg version="1.1" id="Layer_1" xmlns="http://www.w3.org/2000/svg" xmlns:xlink="http://www.w3.org/1999/xlink" x="0px" y="0px"
	 viewBox="0 0 16 16" style="enable-background:new 0 0 16 16;" xml:space="preserve" fill="#FFFFFF"> 
<path d="M6.1,12.7c0.2-1,0.3-2,0.5-3c0.2-1,0.3-1.9,0.5-2.9c0-0.2,0-0.4,0-0.6c0-0.6-0.5-0.9-1-0.8C5.6,5.6,5.3,5.9,5,6.3
	C4.5,6.9,4.4,7.7,4.2,8.5C4,9.9,3.7,11.3,3.5,12.7c-0.9,0-1.7,0-2.6,0c0.5-3.1,1.1-6.1,1.6-9.2c0.9,0,1.7,0,2.6,0
	C5,3.9,4.9,4.3,4.9,4.8C5,4.7,5.1,4.6,5.1,4.5c0.5-0.6,1.2-1,2-1.2C8.4,3.1,9.4,3.7,9.8,5c0.1-0.2,0.3-0.3,0.4-0.5
	c0.7-0.8,1.5-1.2,2.6-1.2c1.4,0,2.3,0.9,2.3,2.4c0,0.7-0.1,1.4-0.2,2c-0.3,1.6-0.5,3.2-0.8,4.7c0,0.1,0,0.2-0.1,0.2
	c-0.9,0-1.7,0-2.6,0c0.2-1.2,0.4-2.4,0.6-3.6c0.1-0.8,0.3-1.6,0.4-2.4c0.1-0.4,0-0.8-0.4-1.1c-0.4-0.2-0.9-0.1-1.2,0.1
	C10.3,6,10.1,6.5,9.9,6.9C9.7,7.7,9.5,8.5,9.4,9.3c-0.2,1.1-0.4,2.3-0.6,3.4C7.9,12.7,7,12.7,6.1,12.7z"/>
</svg>
