<?xml version="1.0" encoding="UTF-8"?>
<!DOCTYPE svg PUBLIC "-//W3C//DTD SVG 1.1//EN" "http://www.w3.org/Graphics/SVG/1.1/DTD/svg11.dtd">
<svg xmlns="http://www.w3.org/2000/svg" version="1.1" width="256px" height="256px" style="shape-rendering:geometricPrecision; text-rendering:geometricPrecision; image-rendering:optimizeQuality; fill-rule:evenodd; clip-rule:evenodd" xmlns:xlink="http://www.w3.org/1999/xlink">
<g><path style="opacity:1" fill="#fbd378" d="M 167.5,64.5 C 166.5,65.1667 165.5,65.8333 164.5,66.5C 162.444,68.2401 161.111,70.5735 160.5,73.5C 159.526,71.2573 159.192,68.924 159.5,66.5C 150.285,65.6158 150.285,64.6158 159.5,63.5C 159.619,56.3189 160.619,55.9855 162.5,62.5C 163.85,63.9501 165.516,64.6168 167.5,64.5 Z"/></g>
<g><path style="opacity:1" fill="#f6eace" d="M 167.5,64.5 C 168.043,64.56 168.376,64.8933 168.5,65.5C 167.311,66.4287 165.978,66.762 164.5,66.5C 165.5,65.8333 166.5,65.1667 167.5,64.5 Z"/></g>
<g><path style="opacity:1" fill="#8f9cff" d="M 134.5,74.5 C 128.464,74.3599 122.464,74.6932 116.5,75.5C 119.695,73.9704 123.195,73.3037 127,73.5C 129.69,73.5029 132.19,73.8362 134.5,74.5 Z"/></g>
<g><path style="opacity:1" fill="#4870fe" d="M 134.5,74.5 C 136.075,76.1137 136.741,78.1137 136.5,80.5C 136.5,80.8333 136.5,81.1667 136.5,81.5C 133.54,82.032 133.207,82.6987 135.5,83.5C 135.5,85.1667 135.5,86.8333 135.5,88.5C 132.511,87.3645 129.511,87.1979 126.5,88C 125.491,85.8282 123.824,84.6615 121.5,84.5C 120.167,84.5 118.833,84.5 117.5,84.5C 113.358,83.9603 109.358,83.2937 105.5,82.5C 108.357,78.9043 112.024,76.571 116.5,75.5C 122.464,74.6932 128.464,74.3599 134.5,74.5 Z"/></g>
<g><path style="opacity:1" fill="#c5d3fe" d="M 136.5,81.5 C 136.167,82.1667 135.833,82.8333 135.5,83.5C 133.207,82.6987 133.54,82.032 136.5,81.5 Z"/></g>
<g><path style="opacity:1" fill="#c5d2ff" d="M 137.5,81.5 C 140.46,82.032 140.793,82.6987 138.5,83.5C 138.167,82.8333 137.833,82.1667 137.5,81.5 Z"/></g>
<g><path style="opacity:1" fill="#fcde9d" d="M 169.5,77.5 C 171.104,78.287 171.771,79.6203 171.5,81.5C 175.5,82.1667 175.5,82.8333 171.5,83.5C 171.688,85.1033 171.188,86.4366 170,87.5C 169.357,85.0698 167.857,83.4032 165.5,82.5C 167.94,81.6641 169.273,79.9975 169.5,77.5 Z"/></g>
<g><path style="opacity:1" fill="#5281fe" d="M 134.5,74.5 C 139.865,75.6826 144.532,78.1826 148.5,82C 151.409,84.9849 153.409,88.4849 154.5,92.5C 154.5,93.8333 154.5,95.1667 154.5,96.5C 150.649,95.9709 147.149,96.6375 144,98.5C 143.722,97.5842 143.222,96.9175 142.5,96.5C 139.896,95.4696 137.229,95.4696 134.5,96.5C 134.158,95.6618 133.492,95.3284 132.5,95.5C 132.158,94.6618 131.492,94.3284 130.5,94.5C 130.158,93.6618 129.492,93.3284 128.5,93.5C 128.158,92.6618 127.492,92.3284 126.5,92.5C 126.158,91.6618 125.492,91.3284 124.5,91.5C 124.5,90.8333 124.167,90.5 123.5,90.5C 123.697,88.5204 123.03,86.5204 121.5,84.5C 123.824,84.6615 125.491,85.8282 126.5,88C 129.511,87.1979 132.511,87.3645 135.5,88.5C 135.5,86.8333 135.5,85.1667 135.5,83.5C 136.5,84.8333 137.5,84.8333 138.5,83.5C 140.793,82.6987 140.46,82.032 137.5,81.5C 137.5,80.8333 137.167,80.5 136.5,80.5C 136.741,78.1137 136.075,76.1137 134.5,74.5 Z"/></g>
<g><path style="opacity:1" fill="#b9d0fe" d="M 99.5,90.5 C 99.5,91.5 99.5,92.5 99.5,93.5C 97.1667,93.5 94.8333,93.5 92.5,93.5C 94.9741,92.8953 97.3074,91.8953 99.5,90.5 Z"/></g>
<g><path style="opacity:1" fill="#417ffe" d="M 105.5,82.5 C 109.358,83.2937 113.358,83.9603 117.5,84.5C 115.81,86.4231 115.477,88.4231 116.5,90.5C 118.044,93.248 118.71,96.248 118.5,99.5C 117.596,98.791 117.263,97.791 117.5,96.5C 107.773,97.1389 98.4401,96.4722 89.5,94.5C 90.209,93.596 91.209,93.2627 92.5,93.5C 94.8333,93.5 97.1667,93.5 99.5,93.5C 99.5,92.5 99.5,91.5 99.5,90.5C 100.539,87.0787 102.539,84.4121 105.5,82.5 Z"/></g>
<g><path style="opacity:1" fill="#358dfe" d="M 89.5,94.5 C 98.4401,96.4722 107.773,97.1389 117.5,96.5C 117.263,97.791 117.596,98.791 118.5,99.5C 118.5,100.5 118.5,101.5 118.5,102.5C 118.5,103.167 118.5,103.833 118.5,104.5C 117.691,106.292 117.191,108.292 117,110.5C 116.517,109.552 116.351,108.552 116.5,107.5C 111.57,107.197 106.737,107.531 102,108.5C 101.846,105.475 100.346,103.809 97.5,103.5C 95.158,102.013 93.158,102.346 91.5,104.5C 90.5041,104.586 89.6708,104.252 89,103.5C 89.4087,105.225 89.2421,106.892 88.5,108.5C 84.4049,108.227 80.7383,107.227 77.5,105.5C 79.5701,99.7645 83.5701,96.0979 89.5,94.5 Z"/></g>
<g><path style="opacity:1" fill="#3f8ffe" d="M 123.5,90.5 C 124.167,90.5 124.5,90.8333 124.5,91.5C 124.842,92.3382 125.508,92.6716 126.5,92.5C 126.842,93.3382 127.508,93.6716 128.5,93.5C 128.842,94.3382 129.508,94.6716 130.5,94.5C 130.842,95.3382 131.508,95.6716 132.5,95.5C 132.842,96.3382 133.508,96.6716 134.5,96.5C 136.877,99.726 137.877,103.393 137.5,107.5C 136.833,107.5 136.5,107.833 136.5,108.5C 131.562,107.608 126.562,107.274 121.5,107.5C 121.5,108.833 121.5,110.167 121.5,111.5C 120.514,107.03 120.181,102.363 120.5,97.5C 120.338,95.4727 120.505,93.4727 121,91.5C 121.671,90.7476 122.504,90.4142 123.5,90.5 Z"/></g>
<g><path style="opacity:1" fill="#4c93ff" d="M 154.5,92.5 C 155.612,94.5994 156.279,96.9327 156.5,99.5C 160.79,99.1977 164.79,99.8643 168.5,101.5C 169.953,102.825 169.619,103.658 167.5,104C 158.785,104.775 150.119,104.608 141.5,103.5C 141.5,103.167 141.5,102.833 141.5,102.5C 142.341,100.621 142.675,98.6208 142.5,96.5C 143.222,96.9175 143.722,97.5842 144,98.5C 147.149,96.6375 150.649,95.9709 154.5,96.5C 154.5,95.1667 154.5,93.8333 154.5,92.5 Z"/></g>
<g><path style="opacity:1" fill="#c9e0ff" d="M 116.5,90.5 C 117.15,90.8039 117.817,91.1373 118.5,91.5C 119.169,93.6309 119.835,95.6309 120.5,97.5C 120.181,102.363 120.514,107.03 121.5,111.5C 121.5,111.833 121.5,112.167 121.5,112.5C 119.881,109.452 118.881,106.119 118.5,102.5C 118.5,101.5 118.5,100.5 118.5,99.5C 118.71,96.248 118.044,93.248 116.5,90.5 Z"/></g>
<g><path style="opacity:1" fill="#3999fe" d="M 168.5,101.5 C 172.746,102.745 175.746,105.412 177.5,109.5C 177.851,111.869 178.018,114.203 178,116.5C 174.333,115.167 170.667,115.167 167,116.5C 165.957,114.167 165.124,111.834 164.5,109.5C 160.453,106.517 157.786,107.517 156.5,112.5C 150.928,112.206 145.261,112.206 139.5,112.5C 138.945,108.988 139.612,105.988 141.5,103.5C 150.119,104.608 158.785,104.775 167.5,104C 169.619,103.658 169.953,102.825 168.5,101.5 Z"/></g>
<g><path style="opacity:1" fill="#279afe" d="M 136.5,108.5 C 136.5,109.833 136.5,111.167 136.5,112.5C 136.5,113.167 136.5,113.833 136.5,114.5C 135.732,115.263 135.232,116.263 135,117.5C 131.832,115.795 128.332,114.962 124.5,115C 124.833,114.667 125.167,114.333 125.5,114C 124.255,113.209 122.922,112.709 121.5,112.5C 121.5,112.167 121.5,111.833 121.5,111.5C 121.5,110.167 121.5,108.833 121.5,107.5C 126.562,107.274 131.562,107.608 136.5,108.5 Z"/></g>
<g><path style="opacity:1" fill="#b5ddfe" d="M 137.5,107.5 C 137.232,109.099 137.566,110.432 138.5,111.5C 138.5,114.167 138.5,116.833 138.5,119.5C 137.833,117.167 137.167,114.833 136.5,112.5C 136.5,111.167 136.5,109.833 136.5,108.5C 136.5,107.833 136.833,107.5 137.5,107.5 Z"/></g>
<g><path style="opacity:1" fill="#39a3fe" d="M 91.5,104.5 C 90.0623,107.083 90.3956,109.417 92.5,111.5C 91.6618,111.842 91.3284,112.508 91.5,113.5C 90.6618,113.842 90.3284,114.508 90.5,115.5C 89.8333,115.5 89.5,115.833 89.5,116.5C 88.6618,116.842 88.3284,117.508 88.5,118.5C 87.8333,118.5 87.5,118.833 87.5,119.5C 79.3031,119.453 71.1364,119.453 63,119.5C 62.5357,118.906 62.369,118.239 62.5,117.5C 63.2026,115.284 64.5359,113.451 66.5,112C 69.4167,110.472 72.4167,109.139 75.5,108C 76.0659,107.005 76.7326,106.172 77.5,105.5C 80.7383,107.227 84.4049,108.227 88.5,108.5C 89.2421,106.892 89.4087,105.225 89,103.5C 89.6708,104.252 90.5041,104.586 91.5,104.5 Z"/></g>
<g><path style="opacity:1" fill="#37a7fe" d="M 97.5,103.5 C 100.346,103.809 101.846,105.475 102,108.5C 106.737,107.531 111.57,107.197 116.5,107.5C 116.351,108.552 116.517,109.552 117,110.5C 117.191,108.292 117.691,106.292 118.5,104.5C 118.5,107.167 118.5,109.833 118.5,112.5C 115.593,112.575 112.927,113.409 110.5,115C 110.728,115.399 111.062,115.565 111.5,115.5C 111.5,118.167 111.5,120.833 111.5,123.5C 103.414,123.199 95.4144,123.533 87.5,124.5C 87.5,123.833 87.5,123.167 87.5,122.5C 87.5,121.833 87.5,121.167 87.5,120.5C 88.3382,120.158 88.6716,119.492 88.5,118.5C 89.3382,118.158 89.6716,117.492 89.5,116.5C 90.1667,116.5 90.5,116.167 90.5,115.5C 91.3382,115.158 91.6716,114.492 91.5,113.5C 92.3382,113.158 92.6716,112.492 92.5,111.5C 99.2589,111.767 100.926,109.1 97.5,103.5 Z"/></g>
<g><path style="opacity:1" fill="#42adfe" d="M 141.5,102.5 C 141.5,102.833 141.5,103.167 141.5,103.5C 139.612,105.988 138.945,108.988 139.5,112.5C 145.261,112.206 150.928,112.206 156.5,112.5C 161.186,116.994 163.852,115.994 164.5,109.5C 165.124,111.834 165.957,114.167 167,116.5C 170.667,115.167 174.333,115.167 178,116.5C 178.018,114.203 177.851,111.869 177.5,109.5C 178.791,111.949 179.791,114.616 180.5,117.5C 181.949,118.172 183.282,118.839 184.5,119.5C 184.5,120.5 184.5,121.5 184.5,122.5C 177.468,123.806 168.468,123.806 157.5,122.5C 156.794,121.443 156.461,121.776 156.5,123.5C 156.167,123.5 155.833,123.5 155.5,123.5C 150.456,123.827 145.456,123.494 140.5,122.5C 141.77,121.712 142.77,120.712 143.5,119.5C 144.557,118.794 144.224,118.461 142.5,118.5C 141.508,118.328 140.842,118.662 140.5,119.5C 139.833,119.5 139.167,119.5 138.5,119.5C 138.5,116.833 138.5,114.167 138.5,111.5C 138.5,108.5 138.5,105.5 138.5,102.5C 139.5,102.5 140.5,102.5 141.5,102.5 Z"/></g>
<g><path style="opacity:1" fill="#2cb4fe" d="M 62.5,117.5 C 62.369,118.239 62.5357,118.906 63,119.5C 71.1364,119.453 79.3031,119.453 87.5,119.5C 87.5,119.833 87.5,120.167 87.5,120.5C 86.6618,120.842 86.3284,121.508 86.5,122.5C 85.8333,122.5 85.5,122.833 85.5,123.5C 84.8333,123.5 84.5,123.833 84.5,124.5C 84.5,124.833 84.5,125.167 84.5,125.5C 83.6618,125.842 83.3284,126.508 83.5,127.5C 81.1417,127.253 79.1417,127.919 77.5,129.5C 76.7321,130.263 76.2321,131.263 76,132.5C 71.4501,132.744 66.7835,132.411 62,131.5C 61.6667,132.167 61.3333,132.833 61,133.5C 60.0467,130.568 59.5467,127.568 59.5,124.5C 59.5516,121.654 60.5516,119.32 62.5,117.5 Z"/></g>
<g><path style="opacity:1" fill="#2fb5fe" d="M 111.5,115.5 C 112.475,118.311 113.142,121.311 113.5,124.5C 112.833,124.5 112.5,124.833 112.5,125.5C 111.662,125.842 111.328,126.508 111.5,127.5C 110.833,127.5 110.5,127.833 110.5,128.5C 109.833,128.5 109.5,128.833 109.5,129.5C 108.833,129.5 108.5,129.833 108.5,130.5C 100.837,130.022 93.1704,129.522 85.5,129C 86.1667,128.333 86.8333,127.667 87.5,127C 86.2264,126.023 86.2264,125.189 87.5,124.5C 95.4144,123.533 103.414,123.199 111.5,123.5C 111.5,120.833 111.5,118.167 111.5,115.5 Z"/></g>
<g><path style="opacity:1" fill="#37b5fe" d="M 121.5,112.5 C 122.922,112.709 124.255,113.209 125.5,114C 125.167,114.333 124.833,114.667 124.5,115C 128.332,114.962 131.832,115.795 135,117.5C 135.232,116.263 135.732,115.263 136.5,114.5C 136.838,117.157 136.171,119.49 134.5,121.5C 135.348,123.283 136.681,123.783 138.5,123C 139.684,121.855 139.684,120.688 138.5,119.5C 139.167,119.5 139.833,119.5 140.5,119.5C 140.842,118.662 141.508,118.328 142.5,118.5C 142.5,119.167 142.833,119.5 143.5,119.5C 142.77,120.712 141.77,121.712 140.5,122.5C 145.456,123.494 150.456,123.827 155.5,123.5C 155.833,126.167 156.167,126.167 156.5,123.5C 157.167,123.5 157.5,123.167 157.5,122.5C 168.468,123.806 177.468,123.806 184.5,122.5C 184.5,121.5 184.5,120.5 184.5,119.5C 188.429,120.431 191.095,122.764 192.5,126.5C 192.279,129.097 191.779,129.097 191,126.5C 186.056,128.185 180.89,129.185 175.5,129.5C 173.451,128.359 171.451,128.359 169.5,129.5C 165.479,128.375 161.479,128.375 157.5,129.5C 156.305,126.29 154.305,125.624 151.5,127.5C 143.153,128.134 134.819,128.8 126.5,129.5C 126.5,128.833 126.167,128.5 125.5,128.5C 125.5,127.833 125.167,127.5 124.5,127.5C 124.672,126.508 124.338,125.842 123.5,125.5C 123.5,124.833 123.167,124.5 122.5,124.5C 122.433,121.234 124.099,119.734 127.5,120C 126.552,119.517 125.552,119.351 124.5,119.5C 124.312,116.794 123.312,114.461 121.5,112.5 Z"/></g>
<g><path style="opacity:1" fill="#49c4fe" d="M 86.5,122.5 C 86.8333,122.5 87.1667,122.5 87.5,122.5C 87.5,123.167 87.5,123.833 87.5,124.5C 86.2264,125.189 86.2264,126.023 87.5,127C 86.8333,127.667 86.1667,128.333 85.5,129C 93.1704,129.522 100.837,130.022 108.5,130.5C 108.5,130.833 108.5,131.167 108.5,131.5C 107.833,131.5 107.5,131.833 107.5,132.5C 105.545,131.677 103.545,131.51 101.5,132C 100.198,134.022 98.5315,135.522 96.5,136.5C 92.8544,137.473 89.3544,136.806 86,134.5C 84.0356,135.852 81.8689,136.686 79.5,137C 74.1667,137.333 68.8333,137.667 63.5,138C 65.3731,138.953 65.7065,140.12 64.5,141.5C 60.5043,137.999 58.5043,133.499 58.5,128C 58.5143,126.615 58.8476,125.449 59.5,124.5C 59.5467,127.568 60.0467,130.568 61,133.5C 61.3333,132.833 61.6667,132.167 62,131.5C 66.7835,132.411 71.4501,132.744 76,132.5C 76.2321,131.263 76.7321,130.263 77.5,129.5C 78.5175,134.757 81.1842,135.757 85.5,132.5C 84.8333,130.833 84.1667,129.167 83.5,127.5C 84.3382,127.158 84.6716,126.492 84.5,125.5C 85.8333,125.167 85.8333,124.833 84.5,124.5C 84.5,123.833 84.8333,123.5 85.5,123.5C 86.1667,123.5 86.5,123.167 86.5,122.5 Z M 83.5,127.5 C 84.1667,129.167 84.8333,130.833 85.5,132.5C 81.1842,135.757 78.5175,134.757 77.5,129.5C 79.1417,127.919 81.1417,127.253 83.5,127.5 Z"/></g>
<g><path style="opacity:1" fill="#32c3fe" d="M 122.5,124.5 C 123.167,124.5 123.5,124.833 123.5,125.5C 123.328,126.492 123.662,127.158 124.5,127.5C 125.167,127.5 125.5,127.833 125.5,128.5C 125.461,130.224 125.794,130.557 126.5,129.5C 134.819,128.8 143.153,128.134 151.5,127.5C 148.813,130.746 149.647,133.079 154,134.5C 156.068,132.438 158.568,131.272 161.5,131C 159.942,130.79 158.609,130.29 157.5,129.5C 161.479,128.375 165.479,128.375 169.5,129.5C 167.974,131.13 165.974,131.963 163.5,132C 166.797,131.816 168.797,133.316 169.5,136.5C 175.704,137.958 177.704,135.625 175.5,129.5C 180.89,129.185 186.056,128.185 191,126.5C 191.779,129.097 192.279,129.097 192.5,126.5C 196.012,133.509 194.679,139.509 188.5,144.5C 187.711,144.217 187.044,143.717 186.5,143C 160.167,142.667 133.833,142.333 107.5,142C 109.646,139.643 109.979,137.143 108.5,134.5C 108.167,133.833 107.833,133.167 107.5,132.5C 108.167,132.5 108.5,132.167 108.5,131.5C 109.833,131.167 109.833,130.833 108.5,130.5C 108.5,129.833 108.833,129.5 109.5,129.5C 110.167,129.5 110.5,129.167 110.5,128.5C 111.167,128.5 111.5,128.167 111.5,127.5C 112.338,127.158 112.672,126.492 112.5,125.5C 113.167,125.5 113.5,125.167 113.5,124.5C 116.5,124.5 119.5,124.5 122.5,124.5 Z M 139.5,133.5 C 138.081,134.451 136.415,134.784 134.5,134.5C 134.178,138.976 131.844,140.476 127.5,139C 124.901,136.421 124.901,133.921 127.5,131.5C 128.496,131.586 129.329,131.252 130,130.5C 132.814,132.604 135.98,133.604 139.5,133.5 Z M 175.5,129.5 C 177.704,135.625 175.704,137.958 169.5,136.5C 168.797,133.316 166.797,131.816 163.5,132C 165.974,131.963 167.974,131.13 169.5,129.5C 171.451,128.359 173.451,128.359 175.5,129.5 Z M 157.5,129.5 C 158.609,130.29 159.942,130.79 161.5,131C 158.568,131.272 156.068,132.438 154,134.5C 149.647,133.079 148.813,130.746 151.5,127.5C 154.305,125.624 156.305,126.29 157.5,129.5 Z"/></g>
<g><path style="opacity:1" fill="#4acdfe" d="M 96.5,136.5 C 98.6052,138.637 101.105,140.304 104,141.5C 107.922,140.859 109.422,138.525 108.5,134.5C 109.979,137.143 109.646,139.643 107.5,142C 133.833,142.333 160.167,142.667 186.5,143C 187.044,143.717 187.711,144.217 188.5,144.5C 186.779,146.694 184.445,147.861 181.5,148C 146.5,148.667 111.5,148.667 76.5,148C 71.438,147.638 67.438,145.472 64.5,141.5C 65.7065,140.12 65.3731,138.953 63.5,138C 68.8333,137.667 74.1667,137.333 79.5,137C 81.8689,136.686 84.0356,135.852 86,134.5C 89.3544,136.806 92.8544,137.473 96.5,136.5 Z"/></g>
<g><path style="opacity:1" fill="#b4c1fe" d="M 97.5,160.5 C 99.0348,159.212 100.701,159.212 102.5,160.5C 102.376,161.107 102.043,161.44 101.5,161.5C 100.432,160.566 99.099,160.232 97.5,160.5 Z"/></g>
<g><path style="opacity:1" fill="#8c8c8c" d="M 150.5,163.5 C 150.598,160.752 149.598,160.086 147.5,161.5C 148.183,159.824 149.517,159.157 151.5,159.5C 151.768,161.099 151.434,162.432 150.5,163.5 Z"/></g>
<g><path style="opacity:1" fill="#a3a3a3" d="M 131.5,163.5 C 133.042,162.837 134.709,162.17 136.5,161.5C 133.914,160.52 131.247,160.187 128.5,160.5C 128.5,165.5 128.5,170.5 128.5,175.5C 131.167,175.5 133.833,175.5 136.5,175.5C 136.5,174.5 136.5,173.5 136.5,172.5C 137.434,173.568 137.768,174.901 137.5,176.5C 134.167,176.5 130.833,176.5 127.5,176.5C 127.5,170.833 127.5,165.167 127.5,159.5C 130.833,159.5 134.167,159.5 137.5,159.5C 137.5,160.833 137.5,162.167 137.5,163.5C 135.5,163.5 133.5,163.5 131.5,163.5 Z"/></g>
<g><path style="opacity:1" fill="#939393" d="M 143.5,161.5 C 141.121,160.433 140.121,161.433 140.5,164.5C 139.766,163.122 139.099,161.622 138.5,160C 139.333,159.833 140.167,159.667 141,159.5C 142.376,159.684 143.209,160.351 143.5,161.5 Z"/></g>
<g><path style="opacity:1" fill="#4f4f4f" d="M 157.5,163.5 C 156.596,164.209 156.263,165.209 156.5,166.5C 161.579,166.782 161.746,167.782 157,169.5C 156.26,170.749 156.427,171.749 157.5,172.5C 159.199,172.34 160.866,172.506 162.5,173C 163.451,173.718 163.617,174.551 163,175.5C 159.943,176.451 156.777,176.784 153.5,176.5C 153.5,170.833 153.5,165.167 153.5,159.5C 156.518,159.335 159.518,159.502 162.5,160C 163.833,161 163.833,162 162.5,163C 160.866,163.494 159.199,163.66 157.5,163.5 Z"/></g>
<g><path style="opacity:1" fill="#b7b7b7" d="M 169.5,160.5 C 168.167,160.5 166.833,160.5 165.5,160.5C 165.5,165.5 165.5,170.5 165.5,175.5C 166.5,175.5 167.5,175.5 168.5,175.5C 167.432,176.434 166.099,176.768 164.5,176.5C 164.5,170.833 164.5,165.167 164.5,159.5C 166.415,159.216 168.081,159.549 169.5,160.5 Z"/></g>
<g><path style="opacity:1" fill="#6181fe" d="M 72.5,162.5 C 71.8166,164.176 70.4832,164.843 68.5,164.5C 68.5,163.167 68.5,161.833 68.5,160.5C 69.5676,159.566 70.901,159.232 72.5,159.5C 72.5,160.5 72.5,161.5 72.5,162.5 Z"/></g>
<g><path style="opacity:1" fill="#6786ff" d="M 88.5,164.5 C 86.1944,164.007 83.861,163.674 81.5,163.5C 81.5,164.5 81.5,165.5 81.5,166.5C 80.5,166.5 79.5,166.5 78.5,166.5C 78.5,164.833 78.5,163.167 78.5,161.5C 78.6107,160.883 78.944,160.383 79.5,160C 82.1667,159.333 84.8333,159.333 87.5,160C 89.4661,161.347 89.7994,162.847 88.5,164.5 Z"/></g>
<g><path style="opacity:1" fill="#6787fe" d="M 125.5,163.5 C 124.167,163.5 122.833,163.5 121.5,163.5C 121.843,165.483 121.176,166.817 119.5,167.5C 119.5,166.167 119.5,164.833 119.5,163.5C 118.167,163.5 116.833,163.5 115.5,163.5C 115.5,162.167 115.5,160.833 115.5,159.5C 118.85,159.335 122.183,159.502 125.5,160C 126.684,161.145 126.684,162.312 125.5,163.5 Z"/></g>
<g><path style="opacity:1" fill="#dadada" d="M 172.5,159.5 C 172.664,162.187 172.497,164.854 172,167.5C 171.209,166.255 170.709,164.922 170.5,163.5C 171.167,162.167 171.833,160.833 172.5,159.5 Z"/></g>
<g><path style="opacity:1" fill="#3d70fe" d="M 60.5,160.5 C 61.1667,160.5 61.5,160.833 61.5,161.5C 61.6602,163.199 61.4935,164.866 61,166.5C 60.2917,165.619 59.4584,164.953 58.5,164.5C 57.791,163.596 56.791,163.263 55.5,163.5C 54.609,164.11 53.609,164.443 52.5,164.5C 52.5,163.167 52.5,161.833 52.5,160.5C 55.1667,160.5 57.8333,160.5 60.5,160.5 Z"/></g>
<g><path style="opacity:1" fill="#4173fe" d="M 113.5,160.5 C 113.5,161.5 113.5,162.5 113.5,163.5C 110.918,163.025 108.918,163.692 107.5,165.5C 106.391,165.557 105.391,165.89 104.5,166.5C 104.5,164.5 104.5,162.5 104.5,160.5C 107.5,160.5 110.5,160.5 113.5,160.5 Z"/></g>
<g><path style="opacity:1" fill="#e2ebff" d="M 113.5,163.5 C 111.469,163.972 109.802,164.972 108.5,166.5C 107.833,166.5 107.5,166.167 107.5,165.5C 108.918,163.692 110.918,163.025 113.5,163.5 Z"/></g>
<g><path style="opacity:1" fill="#bfbfbf" d="M 175.5,159.5 C 176.489,164.975 176.822,170.642 176.5,176.5C 174.585,176.784 172.919,176.451 171.5,175.5C 172.833,175.5 174.167,175.5 175.5,175.5C 175.5,170.167 175.5,164.833 175.5,159.5 Z"/></g>
<g><path style="opacity:1" fill="#535353" d="M 181.5,175.5 C 180.179,171.767 180.179,167.934 181.5,164C 180.552,163.517 179.552,163.351 178.5,163.5C 178.5,162.5 178.5,161.5 178.5,160.5C 181.572,160.183 184.572,160.516 187.5,161.5C 186.675,162.386 185.675,162.719 184.5,162.5C 184.5,166.833 184.5,171.167 184.5,175.5C 183.5,175.5 182.5,175.5 181.5,175.5 Z"/></g>
<g><path style="opacity:1" fill="#bddeff" d="M 88.5,164.5 C 86.983,165.735 85.3163,165.735 83.5,164.5C 82.1667,167.167 82.1667,169.833 83.5,172.5C 84.8689,170.876 86.5355,170.376 88.5,171C 89.7911,172.292 89.7911,173.458 88.5,174.5C 88.5299,173.503 88.0299,172.836 87,172.5C 85.2341,173.233 83.4008,173.567 81.5,173.5C 81.5,171.167 81.5,168.833 81.5,166.5C 81.5,165.5 81.5,164.5 81.5,163.5C 83.861,163.674 86.1944,164.007 88.5,164.5 Z"/></g>
<g><path style="opacity:1" fill="#5689fe" d="M 94.5,160.5 C 95.2216,160.918 95.7216,161.584 96,162.5C 96.2784,161.584 96.7784,160.918 97.5,160.5C 99.099,160.232 100.432,160.566 101.5,161.5C 100.974,163.23 99.9744,164.564 98.5,165.5C 97.7784,165.918 97.2784,166.584 97,167.5C 95.1722,166.248 93.3388,166.248 91.5,167.5C 91.5,165.167 91.5,162.833 91.5,160.5C 92.5,160.5 93.5,160.5 94.5,160.5 Z"/></g>
<g><path style="opacity:1" fill="#c3c3c3" d="M 131.5,165.5 C 133.167,165.5 134.833,165.5 136.5,165.5C 136.768,167.099 136.434,168.432 135.5,169.5C 135.5,168.5 135.5,167.5 135.5,166.5C 133.901,166.768 132.568,166.434 131.5,165.5 Z"/></g>
<g><path style="opacity:1" fill="#a8a8a8" d="M 181.5,175.5 C 182.5,175.5 183.5,175.5 184.5,175.5C 184.5,171.167 184.5,166.833 184.5,162.5C 185.675,162.719 186.675,162.386 187.5,161.5C 184.572,160.516 181.572,160.183 178.5,160.5C 178.5,161.5 178.5,162.5 178.5,163.5C 177.566,162.432 177.232,161.099 177.5,159.5C 181.167,159.5 184.833,159.5 188.5,159.5C 188.5,160.833 188.5,162.167 188.5,163.5C 187.5,163.5 186.5,163.5 185.5,163.5C 185.5,167.833 185.5,172.167 185.5,176.5C 183.901,176.768 182.568,176.434 181.5,175.5 Z"/></g>
<g><path style="opacity:1" fill="#cbcbcb" d="M 197.5,164.5 C 198.833,164.5 200.167,164.5 201.5,164.5C 200.833,165.167 200.167,165.833 199.5,166.5C 197.585,166.784 195.919,166.451 194.5,165.5C 195.791,165.737 196.791,165.404 197.5,164.5 Z"/></g>
<g><path style="opacity:1" fill="#444444" d="M 131.5,163.5 C 131.5,164.167 131.5,164.833 131.5,165.5C 132.568,166.434 133.901,166.768 135.5,166.5C 135.5,167.5 135.5,168.5 135.5,169.5C 130.253,170.985 130.587,171.985 136.5,172.5C 136.5,173.5 136.5,174.5 136.5,175.5C 133.833,175.5 131.167,175.5 128.5,175.5C 128.5,170.5 128.5,165.5 128.5,160.5C 131.247,160.187 133.914,160.52 136.5,161.5C 134.709,162.17 133.042,162.837 131.5,163.5 Z"/></g>
<g><path style="opacity:1" fill="#505050" d="M 201.5,164.5 C 200.167,164.5 198.833,164.5 197.5,164.5C 196.053,163.115 195.053,163.448 194.5,165.5C 195.919,166.451 197.585,166.784 199.5,166.5C 201.026,167.492 201.693,168.992 201.5,171C 201.397,172.561 201.063,174.061 200.5,175.5C 197.691,176.8 195.024,176.8 192.5,175.5C 190.825,173.544 191.158,172.211 193.5,171.5C 195.456,173.175 196.789,172.842 197.5,170.5C 196.081,169.549 194.415,169.216 192.5,169.5C 191.883,169.389 191.383,169.056 191,168.5C 188.747,159.927 191.914,157.093 200.5,160C 201.38,161.356 201.714,162.856 201.5,164.5 Z"/></g>
<g><path style="opacity:1" fill="#51a0fe" d="M 61.5,161.5 C 62.8333,164.167 62.8333,166.833 61.5,169.5C 58.3915,169.264 55.3915,169.597 52.5,170.5C 52.5,168.5 52.5,166.5 52.5,164.5C 53.609,164.443 54.609,164.11 55.5,163.5C 55.5,164.833 55.5,166.167 55.5,167.5C 57.1788,167.715 58.1788,167.048 58.5,165.5C 58.5,165.167 58.5,164.833 58.5,164.5C 59.4584,164.953 60.2917,165.619 61,166.5C 61.4935,164.866 61.6602,163.199 61.5,161.5 Z M 58.5,164.5 C 58.5,164.833 58.5,165.167 58.5,165.5C 57.6365,166.463 56.9698,166.463 56.5,165.5C 56.9569,164.702 57.6236,164.369 58.5,164.5 Z"/></g>
<g><path style="opacity:1" fill="#b5d3ff" d="M 55.5,163.5 C 56.791,163.263 57.791,163.596 58.5,164.5C 57.6236,164.369 56.9569,164.702 56.5,165.5C 56.9698,166.463 57.6365,166.463 58.5,165.5C 58.1788,167.048 57.1788,167.715 55.5,167.5C 55.5,166.167 55.5,164.833 55.5,163.5 Z"/></g>
<g><path style="opacity:1" fill="#2997fe" d="M 107.5,165.5 C 107.5,166.167 107.833,166.5 108.5,166.5C 109.5,166.5 110.5,166.5 111.5,166.5C 111.5,167.5 111.5,168.5 111.5,169.5C 109.139,169.674 106.806,170.007 104.5,170.5C 104.5,169.167 104.5,167.833 104.5,166.5C 105.391,165.89 106.391,165.557 107.5,165.5 Z"/></g>
<g><path style="opacity:1" fill="#51a0fe" d="M 68.5,160.5 C 68.5,161.833 68.5,163.167 68.5,164.5C 70.4832,164.843 71.8166,164.176 72.5,162.5C 73.404,163.209 73.7373,164.209 73.5,165.5C 73.7136,169.257 72.7136,169.924 70.5,167.5C 69.8933,167.624 69.56,167.957 69.5,168.5C 69.5,168.833 69.5,169.167 69.5,169.5C 67.4017,170.914 66.4017,170.248 66.5,167.5C 66.4095,164.848 67.0762,162.515 68.5,160.5 Z"/></g>
<g><path style="opacity:1" fill="#8d8d8d" d="M 157.5,163.5 C 158.183,165.176 159.517,165.843 161.5,165.5C 161.5,167.167 161.5,168.833 161.5,170.5C 159.517,170.157 158.183,170.824 157.5,172.5C 156.427,171.749 156.26,170.749 157,169.5C 161.746,167.782 161.579,166.782 156.5,166.5C 156.263,165.209 156.596,164.209 157.5,163.5 Z"/></g>
<g><path style="opacity:1" fill="#464646" d="M 172.5,159.5 C 173.5,159.5 174.5,159.5 175.5,159.5C 175.5,164.833 175.5,170.167 175.5,175.5C 174.167,175.5 172.833,175.5 171.5,175.5C 170.662,175.158 170.328,174.492 170.5,173.5C 170.672,172.508 170.338,171.842 169.5,171.5C 168.833,171.5 168.5,171.833 168.5,172.5C 168.5,173.5 168.5,174.5 168.5,175.5C 167.5,175.5 166.5,175.5 165.5,175.5C 165.5,170.5 165.5,165.5 165.5,160.5C 166.833,160.5 168.167,160.5 169.5,160.5C 170.404,161.209 170.737,162.209 170.5,163.5C 170.709,164.922 171.209,166.255 172,167.5C 172.497,164.854 172.664,162.187 172.5,159.5 Z"/></g>
<g><path style="opacity:1" fill="#3da9fe" d="M 98.5,165.5 C 98.8333,166.833 99.1667,168.167 99.5,169.5C 99.1788,171.048 98.1788,171.715 96.5,171.5C 96.44,170.957 96.1067,170.624 95.5,170.5C 92.3081,173.118 90.9748,172.118 91.5,167.5C 93.3388,166.248 95.1722,166.248 97,167.5C 97.2784,166.584 97.7784,165.918 98.5,165.5 Z"/></g>
<g><path style="opacity:1" fill="#5b5b5b" d="M 143.5,161.5 C 144.185,163.414 144.685,165.414 145,167.5C 145.566,165.277 146.4,163.277 147.5,161.5C 149.598,160.086 150.598,160.752 150.5,163.5C 149.987,167.553 149.154,171.553 148,175.5C 146.333,176.833 144.667,176.833 143,175.5C 141.85,171.888 141.017,168.222 140.5,164.5C 140.121,161.433 141.121,160.433 143.5,161.5 Z"/></g>
<g><path style="opacity:1" fill="#41b7fe" d="M 61.5,169.5 C 60.0813,170.451 58.4147,170.784 56.5,170.5C 55.735,171.66 54.735,172.66 53.5,173.5C 52.6143,172.675 52.281,171.675 52.5,170.5C 55.3915,169.597 58.3915,169.264 61.5,169.5 Z"/></g>
<g><path style="opacity:1" fill="#4dacfe" d="M 125.5,163.5 C 124.791,164.404 123.791,164.737 122.5,164.5C 122.5,166.5 122.5,168.5 122.5,170.5C 120.121,171.567 119.121,170.567 119.5,167.5C 121.176,166.817 121.843,165.483 121.5,163.5C 122.833,163.5 124.167,163.5 125.5,163.5 Z"/></g>
<g><path style="opacity:1" fill="#cacaca" d="M 192.5,169.5 C 194.415,169.216 196.081,169.549 197.5,170.5C 195.901,170.232 194.568,170.566 193.5,171.5C 191.158,172.211 190.825,173.544 192.5,175.5C 189.985,173.682 189.985,171.682 192.5,169.5 Z"/></g>
<g><path style="opacity:1" fill="#5bc7fe" d="M 73.5,165.5 C 75.2576,168.854 76.2576,172.521 76.5,176.5C 74.3337,176.421 72.3337,175.754 70.5,174.5C 68.8333,175.167 67.1667,175.833 65.5,176.5C 64.8333,176.167 64.1667,175.833 63.5,175.5C 64.2092,172.616 65.2092,169.949 66.5,167.5C 66.4017,170.248 67.4017,170.914 69.5,169.5C 70.6441,170.183 70.6441,169.849 69.5,168.5C 69.56,167.957 69.8933,167.624 70.5,167.5C 72.7136,169.924 73.7136,169.257 73.5,165.5 Z"/></g>
<g><path style="opacity:1" fill="#84d3fe" d="M 113.5,160.5 C 110.5,160.5 107.5,160.5 104.5,160.5C 104.5,162.5 104.5,164.5 104.5,166.5C 104.5,167.833 104.5,169.167 104.5,170.5C 106.806,170.007 109.139,169.674 111.5,169.5C 111.5,168.5 111.5,167.5 111.5,166.5C 112.434,167.568 112.768,168.901 112.5,170.5C 111.022,170.238 109.689,170.571 108.5,171.5C 110.045,172.452 111.712,172.785 113.5,172.5C 113.5,173.833 113.5,175.167 113.5,176.5C 110.167,176.5 106.833,176.5 103.5,176.5C 103.5,170.833 103.5,165.167 103.5,159.5C 107.042,159.187 110.375,159.521 113.5,160.5 Z"/></g>
<g><path style="opacity:1" fill="#e0e0e0" d="M 169.5,171.5 C 170.338,171.842 170.672,172.508 170.5,173.5C 169.833,174.167 169.167,174.833 168.5,175.5C 168.5,174.5 168.5,173.5 168.5,172.5C 169.167,172.5 169.5,172.167 169.5,171.5 Z"/></g>
<g><path style="opacity:1" fill="#6dcefe" d="M 115.5,163.5 C 116.833,163.5 118.167,163.5 119.5,163.5C 119.5,164.833 119.5,166.167 119.5,167.5C 119.121,170.567 120.121,171.567 122.5,170.5C 122.5,172.5 122.5,174.5 122.5,176.5C 121.167,176.5 119.833,176.5 118.5,176.5C 118.5,172.5 118.5,168.5 118.5,164.5C 117.209,164.737 116.209,164.404 115.5,163.5 Z"/></g>
<g><path style="opacity:1" fill="#99d6ff" d="M 60.5,160.5 C 57.8333,160.5 55.1667,160.5 52.5,160.5C 52.5,161.833 52.5,163.167 52.5,164.5C 52.5,166.5 52.5,168.5 52.5,170.5C 52.281,171.675 52.6143,172.675 53.5,173.5C 54.735,172.66 55.735,171.66 56.5,170.5C 57.5749,174.938 55.9083,176.938 51.5,176.5C 51.5,170.833 51.5,165.167 51.5,159.5C 54.7131,159.19 57.7131,159.523 60.5,160.5 Z"/></g>
<g><path style="opacity:1" fill="#5ec8fe" d="M 78.5,161.5 C 78.5,163.167 78.5,164.833 78.5,166.5C 79.5,166.5 80.5,166.5 81.5,166.5C 81.5,168.833 81.5,171.167 81.5,173.5C 83.4008,173.567 85.2341,173.233 87,172.5C 88.0299,172.836 88.5299,173.503 88.5,174.5C 88.3893,175.117 88.056,175.617 87.5,176C 84.0074,177.004 80.8408,176.504 78,174.5C 77.1864,169.98 77.353,165.646 78.5,161.5 Z"/></g>
<g><path style="opacity:1" fill="#8bd6fe" d="M 94.5,160.5 C 93.5,160.5 92.5,160.5 91.5,160.5C 91.5,162.833 91.5,165.167 91.5,167.5C 90.9748,172.118 92.3081,173.118 95.5,170.5C 96.1067,170.624 96.44,170.957 96.5,171.5C 96.3843,175.275 94.3843,176.942 90.5,176.5C 90.5,170.833 90.5,165.167 90.5,159.5C 92.099,159.232 93.4324,159.566 94.5,160.5 Z"/></g>
<g><path style="opacity:1" fill="#59cbfe" d="M 99.5,169.5 C 100.864,171.22 101.864,173.22 102.5,175.5C 98.7397,177.097 96.7397,175.763 96.5,171.5C 98.1788,171.715 99.1788,171.048 99.5,169.5 Z"/></g>
<g><path style="opacity:1" fill="#c2dbdf" d="M 178.5,205.5 C 175.206,205.741 172.206,204.908 169.5,203C 168.167,202.333 168.167,201.667 169.5,201C 133.829,200.167 98.162,200.333 62.5,201.5C 66.4592,202.327 70.4592,202.827 74.5,203C 70.1794,203.499 65.8461,203.666 61.5,203.5C 59.0941,198.902 60.4274,195.402 65.5,193C 67.5,192.333 69.5,191.667 71.5,191C 110.167,190.333 148.833,190.333 187.5,191C 192.634,191.786 195.134,194.619 195,199.5C 193.786,201.049 192.286,202.215 190.5,203C 186.391,203.944 182.391,204.778 178.5,205.5 Z"/></g>
<g><path style="opacity:1" fill="#c6d8de" d="M 178.5,205.5 C 180.028,205.517 180.528,206.184 180,207.5C 178.269,209.617 176.102,211.117 173.5,212C 167.581,213.196 161.581,213.862 155.5,214C 156.167,214.333 156.833,214.667 157.5,215C 149.717,223.712 139.884,227.545 128,226.5C 121.682,226.739 115.515,225.906 109.5,224C 106.274,222.894 103.607,221.061 101.5,218.5C 95.7492,217.732 90.0826,216.565 84.5,215C 79.4052,213.247 76.5719,209.747 76,204.5C 74.7485,206.001 73.7485,207.668 73,209.5C 68.6267,208.398 64.7933,206.398 61.5,203.5C 65.8461,203.666 70.1794,203.499 74.5,203C 70.4592,202.827 66.4592,202.327 62.5,201.5C 98.162,200.333 133.829,200.167 169.5,201C 168.167,201.667 168.167,202.333 169.5,203C 172.206,204.908 175.206,205.741 178.5,205.5 Z"/></g>
</svg>
